HIERARCHY
ROOT Pelvis
{
	OFFSET 0.000000 0.000000 0.000000
	CHANNELS 6 Xposition Yposition Zposition Xrotation Yrotation Zrotation
	JOINT LeftUpLeg_virtual
	{
		OFFSET 0.000000 0.000000 0.000000
		CHANNELS 3 Xrotation Yrotation Zrotation
		JOINT LeftUpLeg
		{
			OFFSET 18.735201 -5.666702 -4.541200
			CHANNELS 3 Xrotation Yrotation Zrotation
			JOINT LeftLeg
			{
				OFFSET -0.021200 -31.938179 0.493100
				CHANNELS 3 Xrotation Yrotation Zrotation
				JOINT LeftFoot
				{
					OFFSET 0.021200 -31.938179 -4.336299
					CHANNELS 3 Xrotation Yrotation Zrotation
					JOINT LeftToeBase
					{
						OFFSET 0.943001 -26.722000 15.023500
						CHANNELS 3 Xrotation Yrotation Zrotation
						End Site
						{
							OFFSET 0 0 0
						}
					}
				}
			}
		}
	}
	JOINT RightUpLeg_virtual
	{
		OFFSET 0.000000 0.000000 0.000000
		CHANNELS 3 Xrotation Yrotation Zrotation
		JOINT RightUpLeg
		{
			OFFSET -18.735201 -5.666702 -4.541200
			CHANNELS 3 Xrotation Yrotation Zrotation
			JOINT RightLeg
			{
				OFFSET 0.018946 -31.938133 0.493100
				CHANNELS 3 Xrotation Yrotation Zrotation
				JOINT RightFoot
				{
					OFFSET -0.018946 -31.938126 -4.336299
					CHANNELS 3 Xrotation Yrotation Zrotation
					JOINT RightToeBase
					{
						OFFSET -0.943001 -26.722004 15.023500
						CHANNELS 3 Xrotation Yrotation Zrotation
						End Site
						{
							OFFSET 0 0 0
						}
					}
				}
			}
		}
	}
	JOINT Hips_virtual
	{
		OFFSET 0.000000 0.000000 0.000000
		CHANNELS 3 Xrotation Yrotation Zrotation
		JOINT Hips
		{
			OFFSET -0.000000 -0.000000 -0.000000
			CHANNELS 3 Xrotation Yrotation Zrotation
			JOINT Spine
			{
				OFFSET 0.000000 10.199997 -0.299500
				CHANNELS 3 Xrotation Yrotation Zrotation
				JOINT Spine1
				{
					OFFSET 0.000000 11.900002 -1.516600
					CHANNELS 3 Xrotation Yrotation Zrotation
					JOINT Spine2
					{
						OFFSET 0.000000 13.600006 -2.842500
						CHANNELS 3 Xrotation Yrotation Zrotation
						JOINT Neck_virtual
						{
							OFFSET 0.000000 0.000000 0.000000
							CHANNELS 3 Xrotation Yrotation Zrotation
							JOINT Neck
							{
								OFFSET 0.000000 9.624100 -2.890100
								CHANNELS 3 Xrotation Yrotation Zrotation
								JOINT Head
								{
									OFFSET 0.000000 14.068802 -1.351900
									CHANNELS 3 Xrotation Yrotation Zrotation
									End Site
									{
										OFFSET 0 0 0
									}
								}
							}
						}
						JOINT LeftShoulder_virtual
						{
							OFFSET 0.000000 0.000000 0.000000
							CHANNELS 3 Xrotation Yrotation Zrotation
							JOINT LeftShoulder
							{
								OFFSET 15.263000 10.923401 -0.547700
								CHANNELS 3 Xrotation Yrotation Zrotation
								JOINT LeftArm
								{
									OFFSET 25.438599 -2.830597 -13.032500
									CHANNELS 3 Xrotation Yrotation Zrotation
									JOINT LeftForeArm
									{
										OFFSET 29.960503 0.000000 0.000000
										CHANNELS 3 Xrotation Yrotation Zrotation
										JOINT LeftHand
										{
											OFFSET 27.849251 0.000000 0.000000
											CHANNELS 3 Xrotation Yrotation Zrotation
											End Site
											{
												OFFSET 0 0 0
											}
										}
									}
								}
							}
						}
						JOINT RightShoulder_virtual
						{
							OFFSET 0.000000 0.000000 0.000000
							CHANNELS 3 Xrotation Yrotation Zrotation
							JOINT RightShoulder
							{
								OFFSET -15.263000 10.923401 -0.547700
								CHANNELS 3 Xrotation Yrotation Zrotation
								JOINT RightArm
								{
									OFFSET -25.438599 -2.830597 -13.032500
									CHANNELS 3 Xrotation Yrotation Zrotation
									JOINT RightForeArm
									{
										OFFSET -29.960503 0.000000 0.000000
										CHANNELS 3 Xrotation Yrotation Zrotation
										JOINT RightHand
										{
											OFFSET -27.849251 0.000000 0.000000
											CHANNELS 3 Xrotation Yrotation Zrotation
											End Site
											{
												OFFSET 0 0 0
											}
										}
									}
								}
							}
						}
					}
				}
			}
		}
	}
}
MOTION
Frames: 12
Frame Time: 0.03333333
-8.892470 80.913528 13.164906 0.000000 0.000000 0.000000 10.519274 -21.970808 2.794756 -55.598754 5.052711 32.755364 48.098800 -2.962211 6.890025 -1.363244 -7.329393 -21.831257 0.000000 0.000000 0.000000 10.589853 -21.124501 2.852839 -34.457167 7.328212 -32.441397 58.572731 -5.463490 1.946451 -34.583710 5.260712 21.546182 0.000000 0.000000 0.000000 10.723163 -21.247972 3.058144 -0.749020 0.059082 -0.025109 8.891956 2.104788 1.010494 2.901662 1.586572 -1.186079 0.000000 0.000000 0.000000 -0.161468 0.754333 0.034453 2.481857 -1.272889 0.855851 0.000000 0.000000 0.000000 1.585650 0.323222 0.520817 3.344270 -11.676179 -13.206545 -26.500565 -16.509515 -43.590103 -169.774324 -65.356195 -171.492198 0.000000 0.000000 0.000000 -0.465799 0.900332 -0.509862 8.395620 12.981113 10.748741 -10.695258 19.047207 39.137414 33.411574 55.533840 -32.897941 0.000000 0.000000 0.000000 
-8.854979 80.912262 13.199596 0.000000 0.000000 0.000000 10.555571 -21.981661 2.778012 -55.543139 5.025862 32.679948 48.164151 -2.924482 6.982014 -1.418868 -7.309101 -21.787009 0.000000 0.000000 0.000000 10.600127 -21.130980 2.829777 -34.462635 7.378766 -32.414937 58.495536 -5.528965 1.959287 -34.609747 5.294796 21.395921 0.000000 0.000000 0.000000 10.710922 -21.232080 3.019322 -0.751784 0.059075 -0.023356 8.929567 2.117703 0.980954 2.932272 1.584885 -1.200642 0.000000 0.000000 0.000000 -0.117880 0.743489 0.018125 2.424950 -1.276661 0.871723 0.000000 0.000000 0.000000 1.588353 0.336069 0.494879 3.342701 -11.624730 -13.320074 -26.509380 -16.513362 -43.799568 -169.837175 -65.237889 -171.657940 0.000000 0.000000 0.000000 -0.591047 0.887700 -0.518450 8.406747 13.061753 10.741436 -10.535048 18.941455 39.026724 33.410044 55.487419 -32.874428 0.000000 0.000000 0.000000 
-8.787104 80.902573 13.303127 0.000000 0.000000 0.000000 10.601598 -21.984338 2.721325 -55.612561 5.034131 32.639138 48.391231 -2.796613 7.115927 -1.409283 -7.274071 -21.637580 0.000000 0.000000 0.000000 10.626756 -21.138206 2.766504 -34.453530 7.331044 -32.485988 58.366173 -5.528462 2.021750 -34.559459 5.366521 21.497623 0.000000 0.000000 0.000000 10.717674 -21.232461 2.918725 -0.753130 0.061727 -0.020705 8.891927 2.096380 0.936159 3.011039 1.598849 -1.235281 0.000000 0.000000 0.000000 -0.032092 0.755868 -0.016748 2.404184 -1.290165 0.899086 0.000000 0.000000 0.000000 1.629670 0.357371 0.441905 3.326661 -11.555236 -13.445212 -26.594735 -16.549634 -44.150196 -169.999584 -65.010949 -171.913525 0.000000 0.000000 0.000000 -0.711050 0.906740 -0.526139 8.396140 13.316835 10.818149 -10.099377 18.660895 38.709684 33.728594 55.742075 -33.124140 0.000000 0.000000 0.000000 
-8.699844 80.878967 13.439735 0.000000 0.000000 0.000000 10.647484 -21.990212 2.641179 -55.837261 5.031673 32.613235 48.811831 -2.598763 7.295020 -1.336312 -7.249925 -21.412969 0.000000 0.000000 0.000000 10.665929 -21.150757 2.682126 -34.461962 7.237814 -32.634839 58.256282 -5.446925 2.104456 -34.382698 5.503250 21.809177 0.000000 0.000000 0.000000 10.755401 -21.269914 2.799113 -0.753934 0.064820 -0.020984 8.784369 2.052306 0.864837 3.130622 1.627213 -1.288273 0.000000 0.000000 0.000000 0.075344 0.785669 -0.059249 2.415788 -1.314871 0.926811 0.000000 0.000000 0.000000 1.700407 0.384859 0.382458 3.300157 -11.485776 -13.559453 -26.703294 -16.602868 -44.586645 -170.257573 -64.736642 -172.232837 0.000000 0.000000 0.000000 -0.801811 0.950888 -0.534251 8.366024 13.685854 10.950450 -9.513973 18.273857 38.274809 34.312507 56.216937 -33.610422 0.000000 0.000000 0.000000 
-8.602730 80.835922 13.559437 0.000000 0.000000 0.000000 10.686281 -22.019780 2.559881 -56.178415 4.964660 32.576724 49.390952 -2.378029 7.526307 -1.229038 -7.285005 -21.194451 0.000000 0.000000 0.000000 10.699785 -21.192042 2.601267 -34.473614 7.160006 -32.827744 58.173869 -5.316825 2.185911 -34.255755 5.676128 22.173917 0.000000 0.000000 0.000000 10.815064 -21.359552 2.700943 -0.751751 0.061148 -0.020062 8.644512 1.983498 0.754472 3.283469 1.658562 -1.348027 0.000000 0.000000 0.000000 0.179951 0.820165 -0.098088 2.453774 -1.347214 0.948264 0.000000 0.000000 0.000000 1.801838 0.407015 0.341768 3.262583 -11.418091 -13.640351 -26.778021 -16.633205 -45.013880 -170.604110 -64.478126 -172.604686 0.000000 0.000000 0.000000 -0.851769 1.007554 -0.545580 8.314319 14.102677 11.078179 -8.866450 17.818956 37.800009 35.078356 56.794614 -34.274736 0.000000 0.000000 0.000000 
-8.511173 80.771126 13.622456 0.000000 0.000000 0.000000 10.709028 -22.074164 2.493678 -56.540753 4.820920 32.498095 50.018469 -2.172432 7.818549 -1.093390 -7.414436 -21.053636 0.000000 0.000000 0.000000 10.725308 -21.263308 2.542673 -34.515910 7.128153 -33.031686 58.166383 -5.164448 2.263041 -34.329668 5.842229 22.478081 0.000000 0.000000 0.000000 10.883093 -21.509075 2.658531 -0.747203 0.051819 -0.016103 8.523723 1.906241 0.604732 3.468898 1.681896 -1.402176 0.000000 0.000000 0.000000 0.261965 0.840489 -0.122691 2.505446 -1.381862 0.954624 0.000000 0.000000 0.000000 1.938577 0.410585 0.336697 3.214284 -11.355227 -13.686318 -26.797226 -16.554307 -45.362817 -171.038442 -64.257996 -173.028950 0.000000 0.000000 0.000000 -0.848536 1.055557 -0.557019 8.231829 14.516167 11.160236 -8.274969 17.306806 37.334712 35.962896 57.409400 -35.077089 0.000000 0.000000 0.000000 
-8.433313 80.694862 13.618713 0.000000 0.000000 0.000000 10.694071 -22.164299 2.448068 -56.820180 4.631036 32.359121 50.570003 -1.990673 8.179419 -0.940995 -7.646765 -21.007007 0.000000 0.000000 0.000000 10.716511 -21.358305 2.509693 -34.606953 7.180340 -33.216603 58.312078 -5.002436 2.339508 -34.552612 5.996890 22.694606 0.000000 0.000000 0.000000 10.914105 -21.672209 2.659064 -0.742358 0.041841 -0.010237 8.439376 1.838107 0.439073 3.674738 1.690648 -1.451116 0.000000 0.000000 0.000000 0.306034 0.833310 -0.131979 2.557381 -1.412658 0.932071 0.000000 0.000000 0.000000 2.096048 0.392169 0.360862 3.138899 -11.317883 -13.717019 -26.709747 -16.304800 -45.594590 -171.556621 -64.033263 -173.492802 0.000000 0.000000 0.000000 -0.773304 1.078793 -0.569612 8.105639 14.883068 11.177450 -7.771998 16.732089 36.903707 36.935860 58.038112 -36.015157 0.000000 0.000000 0.000000 
-8.389909 80.620605 13.534908 0.000000 0.000000 0.000000 10.604249 -22.282773 2.414996 -56.960158 4.409791 32.149837 50.946876 -1.812522 8.602803 -0.754558 -7.953819 -21.016390 0.000000 0.000000 0.000000 10.631871 -21.470672 2.489167 -34.752395 7.310947 -33.362377 58.621676 -4.831026 2.412661 -34.794790 6.151614 22.829571 0.000000 0.000000 0.000000 10.858515 -21.791589 2.665394 -0.740364 0.034440 -0.005459 8.399565 1.778195 0.296130 3.891829 1.664700 -1.486629 0.000000 0.000000 0.000000 0.319640 0.793839 -0.130644 2.602571 -1.441942 0.877821 0.000000 0.000000 0.000000 2.258237 0.340786 0.401283 3.030678 -11.330660 -13.708932 -26.520964 -15.878247 -45.687962 -172.173237 -63.701752 -174.003304 0.000000 0.000000 0.000000 -0.627752 1.060805 -0.582208 7.919229 15.187802 11.129990 -7.403951 16.147380 36.600136 37.977057 58.666530 -37.093583 0.000000 0.000000 0.000000 
-8.373768 80.564018 13.374378 0.000000 0.000000 0.000000 10.402432 -22.402322 2.386671 -56.916745 4.182789 31.852621 51.102424 -1.629503 9.086133 -0.565812 -8.297733 -21.036387 0.000000 0.000000 0.000000 10.454556 -21.580611 2.471287 -34.931780 7.475731 -33.470669 59.075413 -4.665394 2.485555 -35.065150 6.271072 22.852739 0.000000 0.000000 0.000000 10.677812 -21.835953 2.651952 -0.742190 0.032992 -0.008378 8.386117 1.728132 0.221365 4.126588 1.609784 -1.514572 0.000000 0.000000 0.000000 0.326571 0.724957 -0.120213 2.641254 -1.468132 0.783623 0.000000 0.000000 0.000000 2.424101 0.254338 0.446326 2.892436 -11.448449 -13.651004 -26.199511 -15.269284 -45.702483 -172.845273 -63.202869 -174.510268 0.000000 0.000000 0.000000 -0.420979 1.000657 -0.592236 7.677560 15.427758 11.039870 -7.193330 15.574643 36.500101 39.112231 59.350184 -38.363144 0.000000 0.000000 0.000000 
-8.381258 80.518677 13.159184 0.000000 0.000000 0.000000 10.065097 -22.507336 2.363825 -56.635707 3.972101 31.453004 51.013354 -1.456393 9.615048 -0.383479 -8.674554 -21.065891 0.000000 0.000000 0.000000 10.143483 -21.689348 2.455099 -35.052350 7.623283 -33.566032 59.602778 -4.526753 2.570696 -35.416679 6.313327 22.754785 0.000000 0.000000 0.000000 10.343130 -21.819758 2.621615 -0.746570 0.035206 -0.018140 8.363865 1.702919 0.239166 4.379105 1.553933 -1.543102 0.000000 0.000000 0.000000 0.365131 0.642117 -0.106106 2.688066 -1.491215 0.646765 0.000000 0.000000 0.000000 2.592168 0.152465 0.488338 2.730710 -11.658240 -13.522498 -25.695428 -14.494618 -45.718042 -173.486737 -62.549800 -174.908741 0.000000 0.000000 0.000000 -0.184802 0.919227 -0.595754 7.407675 15.617948 10.900296 -7.040455 14.989151 36.526066 40.401877 60.159104 -39.906425 0.000000 0.000000 0.000000 
-8.414280 80.478729 12.922001 0.000000 0.000000 0.000000 9.588237 -22.607107 2.360732 -56.113061 3.830625 30.961162 50.724605 -1.307600 10.167549 -0.187278 -9.065147 -21.092083 0.000000 0.000000 0.000000 9.694220 -21.795115 2.456785 -35.065481 7.759158 -33.682197 60.158790 -4.394930 2.664717 -35.841578 6.273653 22.592265 0.000000 0.000000 0.000000 9.859765 -21.795188 2.609020 -0.753989 0.039857 -0.033399 8.313478 1.711784 0.331765 4.644545 1.528092 -1.562924 0.000000 0.000000 0.000000 0.451056 0.566614 -0.074746 2.758996 -1.519557 0.474250 0.000000 0.000000 0.000000 2.744153 0.059631 0.535138 2.555995 -11.911848 -13.299289 -24.994445 -13.513268 -45.823500 -174.031977 -61.777463 -175.114425 0.000000 0.000000 0.000000 0.017520 0.843565 -0.577049 7.138724 15.754624 10.713886 -6.731759 14.317400 36.512019 41.988957 61.218371 -41.853623 0.000000 0.000000 0.000000 
-8.466929 80.420189 12.702805 0.000000 0.000000 0.000000 8.991516 -22.697299 2.400185 -55.378033 3.813252 30.406322 50.326528 -1.182867 10.719577 -0.008697 -9.433764 -21.077533 0.000000 0.000000 0.000000 9.122477 -21.891661 2.499376 -35.005484 7.972829 -33.852303 60.788445 -4.231976 2.749141 -36.261000 6.185227 22.449182 0.000000 0.000000 0.000000 9.241711 -21.781685 2.646421 -0.762670 0.044354 -0.044556 8.225041 1.752065 0.443624 4.883733 1.553313 -1.563336 0.000000 0.000000 0.000000 0.552664 0.517834 -0.012560 2.857977 -1.555673 0.281315 0.000000 0.000000 0.000000 2.837642 0.002551 0.598577 2.377607 -12.145872 -12.973897 -24.019687 -12.314286 -46.098040 -174.447334 -60.889272 -175.091203 0.000000 0.000000 0.000000 0.146592 0.795061 -0.525825 6.899351 15.793428 10.494015 -5.996654 13.436245 36.249757 44.276524 62.700720 -44.569283 0.000000 0.000000 0.000000 
